<svg xmlns="http://www.w3.org/2000/svg" viewBox="0 0 48 48" fill="currentColor" aria-label="Emile">
  <!-- chef's hat -->
  <path d="M17 8.5c-2.6 0-4.6 2-4.6 4.4 0 .6.1 1.2.3 1.7-1.2.4-2 1.5-2 2.8 0 1.5 1.1 2.7 2.6 2.9v2.2h13.4v-2.2c1.5-.2 2.6-1.4 2.6-2.9 0-1.3-.8-2.4-2-2.8.2-.5.3-1.1.3-1.7 0-2.4-2-4.4-4.6-4.4-1 0-1.9.3-2.7.8-.8-.5-1.7-.8-2.7-.8z"/>
  <!-- head / face -->
  <circle cx="20" cy="28" r="8.2"/>
  <!-- ears -->
  <path d="M12.8 22.4c-1.6-.6-3.4.1-4 1.6s.3 3.3 1.9 3.9c.4-2.2 1.2-4.1 2.1-5.5zM27.2 22.4c1.6-.6 3.4.1 4 1.6s-.3 3.3-1.9 3.9c-.4-2.2-1.2-4.1-2.1-5.5z"/>
  <!-- whiskers forming < > -->
  <path d="M4 28l6 2-6 2" fill="none" stroke="currentColor" stroke-width="1.3" stroke-linecap="round" stroke-linejoin="round"/>
  <path d="M36 28l-6 2 6 2" fill="none" stroke="currentColor" stroke-width="1.3" stroke-linecap="round" stroke-linejoin="round"/>
  <!-- nose -->
  <circle cx="20" cy="30.2" r="1.1" fill="#1A0F0B"/>
  <!-- eye -->
  <circle cx="22.2" cy="26" r="1" fill="#1A0F0B"/>
</svg>
